<svg height="512pt" viewBox="-53 0 511 512" width="512pt" xmlns="http://www.w3.org/2000/svg"><path d="m347.167969 0c32.402343 0 58.664062 26.261719 58.664062 58.667969v394.664062c0 32.40625-26.261719 58.667969-58.664062 58.667969h-288c-24.960938 0-46.082031-15.359375-54.613281-37.332031-2.5625-6.613281-4.054688-13.867188-4.054688-21.335938v-394.664062c0-32.40625 26.261719-58.667969 58.667969-58.667969zm0 0" fill="#eceff1"/><path d="m160.5 192c0 23.5625-19.101562 42.667969-42.667969 42.667969-23.5625 0-42.664062-19.105469-42.664062-42.667969s19.101562-42.667969 42.664062-42.667969c23.566407 0 42.667969 19.105469 42.667969 42.667969zm0 0" fill="#ffc107"/><path d="m405.832031 329.386719v123.945312c0 32.429688-26.238281 58.667969-58.664062 58.667969h-288c-24.960938 0-46.082031-15.359375-54.613281-37.332031l246.824218-246.828125c14.507813-14.507813 38.402344-14.507813 52.90625 0zm0 0" fill="#388e3c"/><path d="m332.445312 512h-273.277343c-24.960938 0-46.082031-15.359375-54.613281-37.332031-2.5625-6.613281-4.054688-13.867188-4.054688-21.335938v-81.277343l69.546875-69.546876c14.507813-14.507812 38.398437-14.507812 52.90625 0zm0 0" fill="#4caf50"/></svg>