<svg id="Layer_1" enable-background="new 0 0 512 512" height="512" viewBox="0 0 512 512" width="512" xmlns="http://www.w3.org/2000/svg"><g id="XMLID_13_"><g id="XMLID_939_"><g id="XMLID_973_"><g id="XMLID_974_"><g id="XMLID_975_"><g id="XMLID_976_"><g id="XMLID_977_"><g id="XMLID_978_"><g id="XMLID_979_"><g id="XMLID_980_"><g id="XMLID_981_"><g id="XMLID_982_"><g id="XMLID_983_"><g id="XMLID_984_"><g id="XMLID_985_"><circle id="XMLID_986_" cx="256" cy="256" fill="#2e537f" r="256"/></g></g></g></g></g></g></g></g></g></g></g></g></g></g><path id="XMLID_1890_" d="m512 256c0-2.363-.037-4.718-.101-7.066l-60.757-60.757-48.897 5.912-94.471-94.863-179.908 222.024 184.509 184.509c114.26-25.681 199.625-127.745 199.625-249.759z" fill="#15364f"/><g id="XMLID_300_"><g id="XMLID_199_"><path id="XMLID_206_" d="m397.823 417.263-14.88 11.781c-25.864 20.477-62.402 20.527-88.321.12l-15.115-11.9c-33.857-26.655-53.619-67.366-53.619-110.456v-118.631h225.254v118.866c0 42.957-19.64 83.556-53.319 110.22z" fill="#18c98e"/><path id="XMLID_214_" d="m451.14 188.177v118.862c0 42.965-19.642 83.563-53.321 110.224l-14.874 11.778c-13.011 10.302-28.73 15.44-44.431 15.395v-256.259z" fill="#13aa78"/><g id="XMLID_202_"><path id="XMLID_204_" d="m327.839 246.951s-8.298 41.014-40.6 41.014-41.193-41.014-41.193-41.014 20.745 20.622 40.897 20.622c20.151 0 40.896-20.622 40.896-20.622z" fill="#2e537f"/><path id="XMLID_203_" d="m430.984 246.951s-8.298 41.014-40.6 41.014-41.193-41.014-41.193-41.014 20.745 20.622 40.897 20.622c20.151 0 40.896-20.622 40.896-20.622z" fill="#15364f"/></g><path id="XMLID_201_" d="m338.515 368.957c-21.973 0-41.829 9.031-56.087 23.571-.387-2.673-.596-5.403-.596-8.182 0-31.305 25.378-56.683 56.683-56.683s56.683 25.378 56.683 56.683c0 2.78-.209 5.51-.596 8.182-14.258-14.54-34.114-23.571-56.087-23.571z" fill="#2e537f"/><path id="XMLID_200_" d="m395.199 384.349c0-31.313-25.383-56.686-56.686-56.686v41.291c21.973 0 41.831 9.034 56.093 23.574.386-2.673.593-5.399.593-8.179z" fill="#15364f"/></g><g id="XMLID_197_"><path id="XMLID_1925_" d="m254.455 328.312-14.88 11.781c-25.864 20.477-62.402 20.527-88.321.12l-15.115-11.9c-33.857-26.655-53.619-67.366-53.619-110.456v-118.632h225.254v118.866c0 42.957-19.64 83.556-53.319 110.221z" fill="#fea926"/><path id="XMLID_88_" d="m307.771 99.227v118.862c0 42.956-19.633 83.563-53.312 110.224l-14.882 11.778c-13.011 10.302-28.73 15.44-44.431 15.395v-256.259z" fill="#ff8a00"/><g id="XMLID_15_"><path id="XMLID_1969_" d="m205.823 199.014s8.298-41.014 40.6-41.014 41.193 41.014 41.193 41.014-20.745-20.622-40.897-20.622-40.896 20.622-40.896 20.622z" fill="#15364f"/><path id="XMLID_1984_" d="m102.678 199.014s8.298-41.014 40.6-41.014 41.193 41.014 41.193 41.014-20.745-20.622-40.897-20.622-40.896 20.622-40.896 20.622z" fill="#2e537f"/></g><path id="XMLID_21_" d="m195.147 262.282c-21.973 0-41.829-9.031-56.087-23.571-.387 2.673-.596 5.403-.596 8.182 0 31.305 25.378 56.683 56.683 56.683s56.683-25.378 56.683-56.683c0-2.78-.209-5.51-.596-8.182-14.258 14.54-34.114 23.571-56.087 23.571z" fill="#2e537f"/><path id="XMLID_86_" d="m251.831 246.89c0 31.313-25.383 56.686-56.686 56.686v-41.291c21.973 0 41.831-9.034 56.093-23.574.386 2.673.593 5.399.593 8.179z" fill="#15364f"/></g></g></g></svg>